<svg xmlns="http://www.w3.org/2000/svg" xmlns:xlink="http://www.w3.org/1999/xlink" width="23" height="21" version="1.1" viewBox="0 0 23 21"><title>A7C75AD4-E5A0-414E-943F-1E65C893FEAE</title><desc>Created with sketchtool.</desc><g id="Hi-Fi_MVP" fill="none" fill-rule="evenodd" stroke="none" stroke-width="1"><g id="icons" stroke="#333" transform="translate(-346.000000, -252.000000)"><g id="icon_weather_rainy"><g transform="translate(347.000000, 253.000000)"><path id="Path" stroke-width=".75" d="M13.3458412,12.325215 C17.0530202,12.325215 17.0530202,12.325215 17.0530202,12.325215 C19.0993854,12.325215 20.7601993,10.5996879 20.7601993,8.47358676 C20.7601993,6.56317776 19.413749,4.97322597 17.5987146,4.67741696 C16.9462564,1.97203207 14.5795899,-7.10542736e-15 11.8629735,-7.10542736e-15 C9.52003287,-7.10542736e-15 7.43214877,1.44204983 6.4831151,3.61129044 C5.85437778,3.26617994 5.15446294,3.08130312 4.44861539,3.08130312 C1.99297923,3.08130312 3.55271368e-15,5.15810278 3.55271368e-15,7.70325907 C3.55271368e-15,10.2545774 1.99297923,12.325215 4.44861539,12.325215 C7.04660259,12.325215 7.04660259,12.325215 7.04660259,12.325215 L13.3458412,12.325215 Z"/><path id="Path-2" stroke-width=".75" d="M6.27644116,14.731715 L6.27644116,16.9163582"/><path id="Path-2" stroke-width=".75" d="M11.3673503,14.731715 L11.3673503,16.9163582"/><path id="Path-2" stroke-width=".75" d="M16.4582593,14.731715 L16.4582593,16.9163582"/><path id="Path-2" stroke-width=".75" d="M8.82189571,17.3123601 L8.82189571,19.4970033"/><path id="Path-2" stroke-width=".75" d="M13.9128048,17.3123601 L13.9128048,19.4970033"/></g></g></g></g></svg>